<svg width="126" height="126" viewBox="0 0 126 126" fill="none" xmlns="http://www.w3.org/2000/svg">
<path d="M69.5519 75.6835C69.5519 67.6729 71.5678 59.6623 75.0958 53.1537C78.6238 46.1444 83.16 40.6371 88.2 35.6304C93.24 30.6238 98.7839 26.1179 104.832 21.6119C110.88 17.6066 115.92 14.6026 119.448 12.6L126 23.6145C120.96 26.6185 115.92 29.6225 111.384 33.1271C106.848 36.1311 102.816 39.1351 100.296 42.1391C96.7678 46.1444 94.2479 49.6491 92.2319 53.6544C90.2159 57.6597 89.208 63.167 88.2 69.6756H97.2719C105.336 69.6756 111.384 71.6782 115.92 75.6835C120.456 79.6889 122.472 85.1962 122.472 92.2055C122.472 97.2121 120.456 102.219 116.424 106.725C112.392 111.231 106.848 113.734 99.7919 113.734C89.2079 113.734 81.6481 110.229 76.6081 103.22C72.0721 96.2108 69.5519 87.1988 69.5519 75.6835ZM9.53674e-07 75.6835C9.53674e-07 67.6729 2.01588 59.6623 5.54388 53.1537C9.07188 46.1444 13.6081 40.6371 18.6481 35.6304C23.6881 30.6238 29.232 26.1179 35.28 21.6119C41.328 17.6066 46.3678 14.6026 49.8958 12.6L56.4481 23.6145C51.4081 26.6185 46.3679 29.6225 41.8319 33.1271C37.2959 36.1311 33.2639 39.1351 30.7439 42.1391C27.2159 46.1444 24.696 49.6491 22.68 53.6544C20.664 57.6597 19.1521 63.167 18.6481 69.6756H27.72C35.784 69.6756 41.8321 71.6782 46.3681 75.6835C50.9041 79.6889 52.92 85.1962 52.92 92.2055C52.92 97.2121 50.9039 102.219 46.8719 106.725C42.8399 111.231 37.296 113.734 30.24 113.734C19.656 113.734 12.0958 110.229 7.05582 103.22C2.01582 96.2108 9.53674e-07 87.1988 9.53674e-07 75.6835Z" fill="#E5EDF7"/>
</svg>
